<svg width="150" height="20" viewBox="0 0 150 20" fill="none" xmlns="http://www.w3.org/2000/svg">
<g clip-path="url(#clip0_8_461)">
<path d="M32.9141 3.3584H36.0177L38.7179 9.1002C39.3548 10.2257 39.9047 11.3981 40.3629 12.6074C40.7544 11.4057 41.2315 10.2336 41.7906 9.1002L44.4597 3.3584H47.5634V16.3939H45.0184V11.1176C45.0184 10.2796 45.0184 9.56576 45.0184 9.03813C45.0184 8.51051 45.0184 7.95184 45.0184 7.33111L40.8905 16.3939H39.618L35.2729 7.33111C35.2729 7.95184 35.2729 8.51051 35.428 9.03813C35.5832 9.56576 35.428 10.2796 35.428 11.1176V16.3939H32.9141V3.3584Z" fill="#1D1D1B"/>
<path d="M51.2877 15.9593C50.6066 15.4917 50.0521 14.8625 49.6738 14.1281C49.247 13.349 49.0329 12.4712 49.0531 11.5831C49.0388 10.6857 49.2524 9.79942 49.6738 9.00703C50.0973 8.23709 50.7188 7.59422 51.4739 7.14483C52.2477 6.69808 53.1255 6.46289 54.0189 6.46289C54.9124 6.46289 55.7902 6.69808 56.564 7.14483C57.3011 7.59691 57.9018 8.2405 58.302 9.00703C58.7286 9.79743 58.9425 10.6851 58.9228 11.5831C58.9548 11.8719 58.9548 12.1633 58.9228 12.4521H51.505C51.6259 13.0048 51.9194 13.5048 52.343 13.8798C52.7805 14.2355 53.3311 14.4227 53.8948 14.4074C54.3861 14.4174 54.8703 14.2883 55.2914 14.035C55.6837 13.8082 56.0141 13.4885 56.2536 13.1039L58.2089 14.5626C57.775 15.215 57.1751 15.74 56.4708 16.0834C55.6653 16.4616 54.7846 16.6526 53.8948 16.6421C52.9802 16.6529 52.0796 16.417 51.2877 15.9593ZM56.2846 10.5899C56.1435 10.0469 55.8404 9.55975 55.4156 9.19325C54.9838 8.82387 54.4319 8.62517 53.8638 8.63459C53.3111 8.62931 52.7736 8.81577 52.343 9.16222C51.9085 9.52824 51.6128 10.0322 51.505 10.5899H56.2846Z" fill="#1D1D1B"/>
<path d="M60.1023 3.38921C60.2338 3.24149 60.3971 3.12561 60.5799 3.05033C60.7627 2.97505 60.9603 2.94235 61.1576 2.95469C61.3593 2.94426 61.5609 2.97771 61.7484 3.05272C61.936 3.12774 62.105 3.24254 62.2439 3.38921C62.3826 3.52104 62.4928 3.67999 62.5675 3.85618C62.6423 4.03237 62.68 4.22204 62.6784 4.41342C62.6824 4.60974 62.6459 4.80478 62.5712 4.98635C62.4964 5.16792 62.385 5.33211 62.2439 5.46867C62.105 5.61534 61.936 5.73014 61.7484 5.80516C61.5609 5.88017 61.3593 5.91362 61.1576 5.90319C60.9613 5.90722 60.7662 5.87072 60.5847 5.79595C60.4031 5.72119 60.2389 5.60977 60.1023 5.46867C59.9541 5.33607 59.8358 5.17334 59.7556 4.99135C59.6753 4.80936 59.6348 4.61232 59.6368 4.41342C59.6351 4.2191 59.676 4.02677 59.7564 3.84986C59.8368 3.67295 59.9549 3.51574 60.1023 3.38921ZM59.9161 6.86533H62.4301V16.3936H59.9161V6.86533Z" fill="#1D1D1B"/>
<path d="M63.9189 2.7998H66.4329V16.3939H63.9189V2.7998Z" fill="#1D1D1B"/>
<path d="M67.9229 2.7998H70.4368V16.3939H67.9229V2.7998Z" fill="#1D1D1B"/>
<path d="M73.9446 15.9593C73.2067 15.5119 72.5972 14.8811 72.1755 14.1282C71.7629 13.3436 71.5497 12.4696 71.5548 11.5831C71.5501 10.6831 71.7744 9.79662 72.2066 9.00709C72.6301 8.23716 73.2515 7.59428 74.0067 7.14489C74.7792 6.69508 75.6577 6.45938 76.5517 6.46208C77.4462 6.4548 78.3259 6.69081 79.0967 7.14489C79.8359 7.60418 80.445 8.24533 80.8658 9.00709C81.2786 9.80271 81.4917 10.6868 81.4866 11.5831C81.5186 11.8719 81.5186 12.1634 81.4866 12.4522H74.1619C74.2958 12.9997 74.5871 13.496 74.9999 13.8799C75.4401 14.2308 75.9888 14.4174 76.5517 14.4075C77.0431 14.4175 77.5272 14.2884 77.9484 14.0351C78.3406 13.8083 78.671 13.4885 78.9105 13.104L80.8658 14.5627C80.4391 15.2213 79.8372 15.748 79.1278 16.0835C78.3233 16.4648 77.4419 16.656 76.5517 16.6421C75.6382 16.6441 74.7399 16.4088 73.9446 15.9593ZM78.9415 10.59C78.8004 10.047 78.4973 9.55981 78.0725 9.19332C77.6407 8.82393 77.0888 8.62523 76.5207 8.63465C75.968 8.62937 75.4305 8.81583 74.9999 9.16228C74.5654 9.5283 74.2697 10.0322 74.1619 10.59H78.9415Z" fill="#1D1D1B"/>
<path d="M84.2792 16.1768C83.7087 15.8598 83.2525 15.3711 82.9757 14.7801C82.6304 14.1426 82.4591 13.4254 82.4791 12.7006V6.86572H84.9931V12.0178C84.9931 13.6317 85.6449 14.4077 86.9174 14.4077C87.1881 14.4158 87.4576 14.3675 87.7087 14.266C87.9598 14.1645 88.187 14.0119 88.3761 13.818C88.7858 13.3115 88.9858 12.6673 88.9348 12.0178V6.86572H91.4487V16.394H89.0279V14.9353C88.8275 15.4651 88.4562 15.9129 87.9726 16.2078C87.4204 16.5034 86.798 16.6429 86.1725 16.6113C85.5131 16.6476 84.8568 16.497 84.2792 16.1768Z" fill="#1D1D1B"/>
<path d="M92.9385 6.86551H95.3904V8.69668C95.4174 8.33867 95.5199 7.99042 95.691 7.67482C95.8622 7.35923 96.0982 7.08341 96.3836 6.86551C96.9681 6.47633 97.6733 6.31103 98.3699 6.39996V8.75876H98.0285C97.6855 8.7409 97.3426 8.79531 97.022 8.91845C96.7013 9.04159 96.4102 9.23072 96.1673 9.47359C95.9244 9.71645 95.7353 10.0076 95.6121 10.3283C95.489 10.6489 95.4346 10.9918 95.4525 11.3348V16.3007H92.9385V6.86551Z" fill="#1D1D1B"/>
<path d="M98.2773 14.9351L99.9533 13.3833C100.226 13.7389 100.573 14.0312 100.969 14.2401C101.366 14.4491 101.803 14.5697 102.25 14.5937C102.593 14.6144 102.933 14.5157 103.212 14.3144C103.33 14.2294 103.425 14.1173 103.49 13.9876C103.555 13.8579 103.587 13.7144 103.585 13.5695C103.584 13.4458 103.552 13.3243 103.492 13.2159C103.433 13.1075 103.347 13.0157 103.243 12.9487C102.797 12.7085 102.315 12.5409 101.816 12.4521C100.883 12.3359 100.012 11.9224 99.3326 11.2727C98.9278 10.7502 98.7191 10.1022 98.7429 9.44158C98.7294 9.03489 98.8091 8.63051 98.9759 8.25934C99.1426 7.88818 99.392 7.56005 99.705 7.30004C100.477 6.68625 101.453 6.38693 102.436 6.46205C103.138 6.44191 103.835 6.56878 104.485 6.83449C105.099 7.13757 105.632 7.58479 106.037 8.13803L104.205 9.53469C104.034 9.21738 103.778 8.95375 103.465 8.77299C103.153 8.59222 102.797 8.50137 102.436 8.51047C102.135 8.49473 101.835 8.55898 101.567 8.6967C101.457 8.7641 101.366 8.86038 101.306 8.97521C101.246 9.09003 101.218 9.21907 101.226 9.34847C101.228 9.44894 101.251 9.54787 101.294 9.63879C101.336 9.72971 101.398 9.81058 101.474 9.87609C101.798 10.074 102.156 10.2108 102.529 10.2796C103.54 10.4606 104.484 10.9109 105.261 11.5831C105.504 11.8389 105.692 12.1413 105.815 12.4721C105.938 12.8028 105.992 13.155 105.974 13.5074C105.982 14.0699 105.82 14.6216 105.509 15.0903C105.167 15.5905 104.695 15.9876 104.143 16.2386C103.537 16.5068 102.882 16.6443 102.219 16.6421C101.478 16.6559 100.743 16.5106 100.063 16.2161C99.3831 15.9217 98.7742 15.4848 98.2773 14.9351Z" fill="#1D1D1B"/>
<path d="M107.216 3.35824H111.747C112.856 3.31525 113.948 3.64285 114.851 4.28935C115.214 4.59107 115.503 4.97151 115.696 5.40176C115.89 5.832 115.983 6.30072 115.968 6.77229C115.993 7.3563 115.83 7.93287 115.503 8.41724C115.083 8.937 114.523 9.32491 113.889 9.53456C114.72 9.66743 115.483 10.0711 116.061 10.6829C116.511 11.2926 116.741 12.0365 116.713 12.7934C116.729 13.472 116.522 14.1371 116.123 14.6867C115.729 15.254 115.179 15.6957 114.541 15.9592C113.758 16.2573 112.926 16.4047 112.089 16.3937H107.216V3.35824ZM111.375 8.72761C111.899 8.77555 112.424 8.64426 112.865 8.35517C113.027 8.21402 113.154 8.03641 113.235 7.83683C113.316 7.63725 113.349 7.42137 113.33 7.20681C113.33 6.18259 112.678 5.686 111.375 5.686H109.823V8.78968L111.375 8.72761ZM111.747 14.0349C113.237 14.0349 113.951 13.5073 113.951 12.3899C113.965 12.171 113.92 11.9522 113.822 11.7559C113.724 11.5596 113.576 11.3929 113.392 11.2726C112.9 10.9672 112.324 10.8259 111.747 10.8691H109.73V13.9728L111.747 14.0349Z" fill="#1D1D1B"/>
<path d="M117.954 3.38959C118.248 3.11241 118.636 2.95801 119.04 2.95801C119.444 2.95801 119.833 3.11241 120.127 3.38959C120.261 3.52297 120.367 3.68291 120.436 3.85924C120.506 4.03557 120.538 4.22443 120.53 4.4138C120.54 4.6081 120.509 4.80233 120.44 4.98405C120.37 5.16577 120.264 5.33096 120.127 5.46906C119.987 5.61409 119.817 5.7278 119.63 5.8027C119.443 5.87759 119.242 5.91197 119.04 5.90357C118.635 5.906 118.246 5.75007 117.954 5.46906C117.816 5.33035 117.706 5.16576 117.632 4.98469C117.557 4.80362 117.519 4.60962 117.52 4.4138C117.518 4.22242 117.556 4.03275 117.63 3.85656C117.705 3.68037 117.815 3.52143 117.954 3.38959ZM117.954 6.71053H120.468V16.394H117.954V6.71053Z" fill="#1D1D1B"/>
<path d="M123.758 15.9593C123.02 15.5119 122.411 14.8811 121.989 14.1282C121.562 13.349 121.348 12.4713 121.368 11.5831C121.364 10.6831 121.588 9.79662 122.02 9.00709C122.444 8.23716 123.065 7.59428 123.82 7.14489C124.593 6.69508 125.471 6.45938 126.365 6.46208C127.26 6.4548 128.14 6.69081 128.91 7.14489C129.648 7.59697 130.248 8.24056 130.648 9.00709C131.085 9.79508 131.309 10.6826 131.3 11.5831C131.332 11.8719 131.332 12.1634 131.3 12.4522H123.976C124.097 13.0049 124.39 13.5048 124.814 13.8799C125.251 14.2356 125.802 14.4228 126.365 14.4075C126.857 14.4175 127.341 14.2884 127.762 14.0351C128.154 13.8083 128.485 13.4885 128.724 13.104L130.68 14.5627C130.253 15.2213 129.651 15.748 128.941 16.0835C128.137 16.4648 127.256 16.656 126.365 16.6421C125.451 16.6484 124.552 16.4128 123.758 15.9593ZM128.755 10.59C128.614 10.047 128.311 9.55981 127.886 9.19332C127.454 8.82393 126.903 8.62523 126.334 8.63465C125.782 8.62937 125.244 8.81583 124.814 9.16228C124.379 9.5283 124.083 10.0322 123.976 10.59H128.755Z" fill="#1D1D1B"/>
<path d="M132.387 6.8656H134.869V8.2933C135.126 7.7443 135.549 7.28999 136.078 6.99475C136.607 6.69951 137.216 6.57831 137.818 6.64835C138.447 6.55504 139.089 6.63 139.68 6.8656C140.251 7.18252 140.707 7.67123 140.984 8.26226C141.329 8.89978 141.5 9.61699 141.48 10.3417V16.3939H138.966V11.0866C139.017 10.4372 138.817 9.79291 138.408 9.28647C138.21 9.08614 137.973 8.92998 137.711 8.82832C137.448 8.72666 137.168 8.68183 136.887 8.69678C136.62 8.68512 136.354 8.73186 136.108 8.83372C135.861 8.93558 135.64 9.0901 135.459 9.28647C135.245 9.53148 135.082 9.81717 134.981 10.1265C134.88 10.4358 134.842 10.7623 134.869 11.0866V16.3939H132.355L132.387 6.8656Z" fill="#1D1D1B"/>
<path d="M142.194 14.9348L143.901 13.383C144.171 13.7348 144.512 14.0248 144.903 14.2336C145.294 14.4424 145.725 14.5651 146.167 14.5934C146.519 14.6092 146.868 14.5113 147.16 14.3141C147.27 14.2242 147.358 14.1103 147.417 13.9812C147.476 13.8521 147.505 13.7112 147.502 13.5692C147.501 13.4455 147.469 13.324 147.409 13.2157C147.35 13.1073 147.264 13.0155 147.16 12.9485C146.764 12.7183 146.335 12.5508 145.888 12.4519C144.994 12.3251 144.166 11.9111 143.529 11.2725C143.115 10.7529 142.896 10.1053 142.908 9.44133C142.895 9.03464 142.974 8.63026 143.141 8.2591C143.308 7.88793 143.557 7.5598 143.87 7.29979C144.618 6.70817 145.556 6.41016 146.508 6.4618C147.21 6.44166 147.908 6.56853 148.557 6.83424C149.177 7.12847 149.712 7.57737 150.109 8.13778L148.278 9.53444C148.111 9.2265 147.864 8.969 147.564 8.78883C147.264 8.60866 146.921 8.51244 146.571 8.51022C146.27 8.49869 145.971 8.56271 145.701 8.69645C145.595 8.76835 145.508 8.86554 145.449 8.97929C145.389 9.09305 145.359 9.21981 145.36 9.34822C145.362 9.44869 145.385 9.54762 145.428 9.63854C145.471 9.72946 145.532 9.81033 145.608 9.87584C145.935 10.0691 146.292 10.2055 146.664 10.2793C147.675 10.4603 148.618 10.9106 149.395 11.5829C149.643 11.836 149.838 12.1373 149.966 12.4682C150.094 12.7991 150.153 13.1526 150.14 13.5071C150.151 14.0748 149.977 14.6305 149.643 15.09C149.301 15.5902 148.829 15.9873 148.278 16.2384C147.681 16.5032 147.037 16.6406 146.384 16.6419C145.603 16.6903 144.82 16.562 144.095 16.2665C143.369 15.971 142.72 15.5158 142.194 14.9348Z" fill="#1D1D1B"/>
<path d="M0.0146484 19.2802L13.3915 9.16216L13.2674 0.782227L0.0146484 10.8071V19.2802Z" fill="url(#paint0_linear_8_461)"/>
<path d="M24.4406 1.27881H18.6367V4.16523L24.4406 8.44831V1.27881Z" fill="url(#paint1_linear_8_461)"/>
<path d="M19.9096 5.81025L13.2056 0.720215L7.74316 5.00329L26.5825 19.2802V12.4521V10.8072L19.9096 5.81025Z" fill="url(#paint2_linear_8_461)"/>
</g>
<defs>
<linearGradient id="paint0_linear_8_461" x1="10.0395" y1="7.61032" x2="-1.41304" y2="15.742" gradientUnits="userSpaceOnUse">
<stop stop-color="#632030"/>
<stop offset="1" stop-color="#BB2030"/>
</linearGradient>
<linearGradient id="paint1_linear_8_461" x1="21.5231" y1="8.47934" x2="21.5231" y2="1.27881" gradientUnits="userSpaceOnUse">
<stop stop-color="#3A3A3B"/>
<stop offset="1" stop-color="#BB2030"/>
</linearGradient>
<linearGradient id="paint2_linear_8_461" x1="26.9549" y1="14.7799" x2="12.0573" y2="4.72396" gradientUnits="userSpaceOnUse">
<stop stop-color="#53160C"/>
<stop offset="0.24" stop-color="#611913"/>
<stop offset="0.68" stop-color="#852025"/>
<stop offset="1" stop-color="#A32633"/>
</linearGradient>
<clipPath id="clip0_8_461">
<rect width="149.97" height="18.56" fill="white" transform="translate(0.0146484 0.720215)"/>
</clipPath>
</defs>
</svg>
