<svg width="32" height="33" viewBox="0 0 32 33" fill="none" xmlns="http://www.w3.org/2000/svg">
<g clip-path="url(#clip0_8_903)">
<g clip-path="url(#clip1_8_903)">
<path fill-rule="evenodd" clip-rule="evenodd" d="M0 0.240234V32.2402H32V0.240234H0ZM23.5 16.7902C23.5 17.9902 23.35 19.2402 23.35 19.2402C23.35 19.2402 23.2 20.2902 22.75 20.7402C22.2 21.3402 21.55 21.3402 21.25 21.3902C19.15 21.4902 16 21.5402 16 21.5402C16 21.5402 12.1 21.4902 10.9 21.3902C10.55 21.3402 9.8 21.3402 9.25 20.7402C8.8 20.2902 8.65 19.2402 8.65 19.2402C8.65 19.2402 8.5 18.0402 8.5 16.7902V15.6402C8.5 14.4402 8.65 13.1902 8.65 13.1902C8.65 13.1902 8.8 12.1402 9.25 11.6902C9.8 11.0902 10.45 11.0902 10.75 11.0402C12.85 10.8902 16 10.8902 16 10.8902C16 10.8902 19.15 10.8902 21.25 11.0402C21.55 11.0902 22.2 11.0902 22.75 11.6902C23.2 12.1402 23.35 13.1902 23.35 13.1902C23.35 13.1902 23.5 14.3902 23.5 15.6402V16.7902ZM14.45 18.1902L18.5 16.0902L14.45 13.9902V18.1902Z" fill="#FF3333"/>
</g>
</g>
<defs>
<clipPath id="clip0_8_903">
<rect width="32" height="32" fill="white" transform="translate(0 0.240234)"/>
</clipPath>
<clipPath id="clip1_8_903">
<rect y="0.240234" width="32" height="32" rx="16" fill="white"/>
</clipPath>
</defs>
</svg>
