<svg width="32" height="32" viewBox="0 0 32 32" fill="none" xmlns="http://www.w3.org/2000/svg">
<g clip-path="url(#clip0_22_554)" filter="url(#filter0_d_22_554)">
<path d="M28 12C28 9.62663 27.2962 7.30655 25.9776 5.33316C24.6591 3.35977 22.7849 1.8217 20.5922 0.913451C18.3995 0.00519943 15.9867 -0.232441 13.6589 0.230582C11.3312 0.693605 9.19295 1.83649 7.51472 3.51472C5.83649 5.19295 4.6936 7.33115 4.23058 9.65892C3.76756 11.9867 4.0052 14.3995 4.91345 16.5922C5.8217 18.7849 7.35977 20.6591 9.33316 21.9776C11.3066 23.2962 13.6266 24 16 24C19.1815 23.9966 22.2318 22.7312 24.4815 20.4815C26.7312 18.2318 27.9966 15.1815 28 12ZM6.00001 12C6.00001 10.0222 6.5865 8.08879 7.68531 6.4443C8.78412 4.79981 10.3459 3.51809 12.1732 2.76121C14.0004 2.00433 16.0111 1.8063 17.9509 2.19215C19.8907 2.578 21.6725 3.53041 23.0711 4.92894C24.4696 6.32746 25.422 8.10929 25.8079 10.0491C26.1937 11.9889 25.9957 13.9996 25.2388 15.8268C24.4819 17.6541 23.2002 19.2159 21.5557 20.3147C19.9112 21.4135 17.9778 22 16 22C13.3487 21.9971 10.8069 20.9426 8.93215 19.0679C7.05742 17.1931 6.00292 14.6513 6.00001 12ZM14.879 17.707C15.0665 17.5195 15.1718 17.2652 15.1718 17C15.1718 16.7348 15.0665 16.4805 14.879 16.293L11.587 13L22 12.993C22.2652 12.993 22.5196 12.8876 22.7071 12.7001C22.8946 12.5126 23 12.2582 23 11.993C23 11.7278 22.8946 11.4734 22.7071 11.2859C22.5196 11.0984 22.2652 10.993 22 10.993L11.586 11L14.879 7.70701C14.9775 7.6168 15.0569 7.50778 15.1126 7.38638C15.1683 7.26498 15.1991 7.13365 15.2032 7.00015C15.2073 6.86665 15.1846 6.73368 15.1364 6.6091C15.0883 6.48451 15.0157 6.37083 14.9229 6.27476C14.8301 6.1787 14.719 6.10219 14.5962 6.04977C14.4733 5.99734 14.3412 5.97005 14.2077 5.96952C14.0741 5.96898 13.9418 5.99521 13.8185 6.04664C13.6953 6.09808 13.5836 6.17369 13.49 6.26901L13.465 6.29301L9.87901 9.87801C9.60038 10.1566 9.37935 10.4873 9.22856 10.8513C9.07776 11.2153 9.00015 11.6055 9.00015 11.9995C9.00015 12.3935 9.07776 12.7837 9.22856 13.1477C9.37935 13.5117 9.60038 13.8424 9.87901 14.121L13.465 17.707C13.6525 17.8945 13.9068 17.9998 14.172 17.9998C14.4372 17.9998 14.6915 17.8945 14.879 17.707Z" fill="#0069FF"/>
</g>
<defs>
<filter id="filter0_d_22_554" x="0" y="0" width="32" height="32" filterUnits="userSpaceOnUse" color-interpolation-filters="sRGB">
<feFlood flood-opacity="0" result="BackgroundImageFix"/>
<feColorMatrix in="SourceAlpha" type="matrix" values="0 0 0 0 0 0 0 0 0 0 0 0 0 0 0 0 0 0 127 0" result="hardAlpha"/>
<feOffset dy="4"/>
<feGaussianBlur stdDeviation="2"/>
<feComposite in2="hardAlpha" operator="out"/>
<feColorMatrix type="matrix" values="0 0 0 0 0 0 0 0 0 0 0 0 0 0 0 0 0 0 0.25 0"/>
<feBlend mode="normal" in2="BackgroundImageFix" result="effect1_dropShadow_22_554"/>
<feBlend mode="normal" in="SourceGraphic" in2="effect1_dropShadow_22_554" result="shape"/>
</filter>
<clipPath id="clip0_22_554">
<rect width="24" height="24" fill="white" transform="translate(4)"/>
</clipPath>
</defs>
</svg>
