<svg width="20" height="20" viewBox="0 0 20 20" fill="none" xmlns="http://www.w3.org/2000/svg">
<g clip-path="url(#clip0_17_1703)">
<path d="M10 0C8.61979 0 7.32422 0.260416 6.11328 0.78125C4.90234 1.3151 3.8444 2.03451 2.93945 2.93945C2.03451 3.8444 1.3151 4.90234 0.78125 6.11328C0.260417 7.32422 0 8.61979 0 10C0 11.3802 0.260417 12.6758 0.78125 13.8867C1.3151 15.0977 2.03451 16.1556 2.93945 17.0605C3.8444 17.9655 4.90234 18.6849 6.11328 19.2188C7.32422 19.7396 8.61979 20 10 20C11.3802 20 12.6758 19.7396 13.8867 19.2188C15.0977 18.6849 16.1556 17.9655 17.0605 17.0605C17.9655 16.1556 18.6849 15.0977 19.2188 13.8867C19.7396 12.6758 20 11.3802 20 10C20 8.61979 19.7396 7.32422 19.2188 6.11328C18.6849 4.90234 17.9655 3.8444 17.0605 2.93945C16.1556 2.03451 15.0977 1.3151 13.8867 0.78125C12.6758 0.260416 11.3802 0 10 0ZM13.2422 13.2422L9.00391 10.5078V3.75H10.8789V9.49219L14.2578 11.7578L13.2422 13.2422Z" fill="#1A1A1A" fill-opacity="0.61"/>
</g>
<defs>
<clipPath id="clip0_17_1703">
<rect width="20" height="20" fill="white" transform="matrix(1 0 0 -1 0 20)"/>
</clipPath>
</defs>
</svg>
