<svg width="32" height="33" viewBox="0 0 32 33" fill="none" xmlns="http://www.w3.org/2000/svg">
<g clip-path="url(#clip0_8_885)">
<g clip-path="url(#clip1_8_885)">
<path fill-rule="evenodd" clip-rule="evenodd" d="M0 0.240234V32.2402H32V0.240234H0ZM21.015 12.2352C21.015 12.7352 20.61 13.1352 20.115 13.1352C19.615 13.1352 19.215 12.7352 19.215 12.2352C19.215 11.7352 19.615 11.3352 20.115 11.3352C20.61 11.3352 21.015 11.7352 21.015 12.2352ZM12.26 16.2352C12.26 14.1102 13.985 12.3852 16.11 12.3852C18.235 12.3852 19.96 14.1152 19.96 16.2352C19.96 18.3602 18.235 20.0902 16.11 20.0902C13.985 20.0902 12.26 18.3652 12.26 16.2352ZM13.61 16.2352C13.61 17.6202 14.73 18.7352 16.11 18.7352C17.49 18.7352 18.61 17.6202 18.61 16.2352C18.61 14.8552 17.49 13.7402 16.11 13.7402C14.73 13.7402 13.61 14.8552 13.61 16.2352ZM19.14 10.1352C18.35 10.1002 18.11 10.0902 16.11 10.0902C14.11 10.0902 13.87 10.0952 13.085 10.1352C12.345 10.1652 11.95 10.2952 11.685 10.3952C11.335 10.5302 11.085 10.6902 10.825 10.9552C10.565 11.2202 10.4 11.4702 10.265 11.8202C10.165 12.0802 10.04 12.4802 10.005 13.2102C9.97 14.0002 9.96 14.2352 9.96 16.2452C9.96 18.2452 9.97 18.4802 10.005 19.2702C10.04 20.0002 10.165 20.4002 10.265 20.6602C10.4 21.0102 10.565 21.2652 10.825 21.5252C11.085 21.7902 11.335 21.9452 11.685 22.0852C11.95 22.1902 12.345 22.3152 13.085 22.3452C13.87 22.3802 14.11 22.3902 16.11 22.3902C18.11 22.3902 18.35 22.3802 19.14 22.3452C19.875 22.3152 20.27 22.1852 20.535 22.0852C20.885 21.9502 21.135 21.7902 21.4 21.5252C21.66 21.2652 21.82 21.0102 21.955 20.6602C22.06 20.4002 22.18 20.0002 22.215 19.2702C22.25 18.4802 22.26 18.2452 22.26 16.2452C22.26 14.2352 22.25 14.0002 22.215 13.2102C22.18 12.4802 22.06 12.0802 21.955 11.8202C21.82 11.4702 21.66 11.2202 21.4 10.9552C21.135 10.6902 20.885 10.5352 20.535 10.3952C20.27 10.2902 19.875 10.1652 19.14 10.1352ZM13.015 8.78523C13.82 8.75023 14.075 8.74023 16.11 8.74023C18.135 8.74023 18.4 8.75023 19.19 8.78023H19.205C20.005 8.81523 20.55 8.94523 21.03 9.13023C21.52 9.32523 21.935 9.58023 22.355 9.99523C22.77 10.4102 23.03 10.8302 23.22 11.3252C23.405 11.8052 23.53 12.3452 23.57 13.1452C23.605 13.9452 23.615 14.2002 23.615 16.2352C23.615 18.2752 23.605 18.5302 23.57 19.3302C23.53 20.1302 23.405 20.6752 23.22 21.1502C23.03 21.6402 22.77 22.0652 22.355 22.4802C21.935 22.8952 21.52 23.1552 21.03 23.3452C20.55 23.5302 20 23.6602 19.205 23.6952C18.405 23.7302 18.155 23.7402 16.115 23.7402C14.075 23.7402 13.82 23.7302 13.02 23.6952C12.22 23.6602 11.675 23.5302 11.2 23.3452C10.71 23.1502 10.29 22.8952 9.875 22.4802C9.455 22.0652 9.195 21.6452 9.005 21.1502C8.82 20.6702 8.695 20.1302 8.66 19.3302C8.625 18.5302 8.615 18.2752 8.615 16.2352C8.615 14.2002 8.625 13.9452 8.66 13.1502C8.695 12.3452 8.82 11.8052 9.005 11.3252C9.195 10.8402 9.455 10.4152 9.875 10.0002C10.29 9.58523 10.705 9.32523 11.2 9.13023C11.675 8.95023 12.22 8.82023 13.015 8.78523Z" fill="#E94475"/>
</g>
</g>
<defs>
<clipPath id="clip0_8_885">
<rect width="32" height="32" fill="white" transform="translate(0 0.240234)"/>
</clipPath>
<clipPath id="clip1_8_885">
<rect y="0.240234" width="32" height="32" rx="16" fill="white"/>
</clipPath>
</defs>
</svg>
