<svg width="32" height="33" viewBox="0 0 32 33" fill="none" xmlns="http://www.w3.org/2000/svg">
<g clip-path="url(#clip0_8_894)">
<g clip-path="url(#clip1_8_894)">
<path fill-rule="evenodd" clip-rule="evenodd" d="M0 0.240234V32.2402H32V0.240234H0ZM12.9 22.2402H10.2V13.5402H12.9V22.2402ZM11.55 12.3902C10.7 12.3902 10 11.6902 10 10.8402C10 9.99023 10.7 9.29023 11.55 9.29023C12.4 9.29023 13.1 9.99023 13.1 10.8402C13.1 11.6902 12.4 12.3902 11.55 12.3902ZM23 22.2402H20.3V18.0402C20.3 17.0402 20.3 15.7402 18.9 15.7402C17.5 15.7402 17.3 16.8402 17.3 17.9902V22.2402H14.6V13.5402H17.2V14.7402H17.25C17.6 14.0402 18.5 13.3402 19.8 13.3402C22.55 13.3402 23.05 15.1402 23.05 17.4902V22.2402H23Z" fill="#007FB1"/>
</g>
</g>
<defs>
<clipPath id="clip0_8_894">
<rect width="32" height="32" fill="white" transform="translate(0 0.240234)"/>
</clipPath>
<clipPath id="clip1_8_894">
<rect y="0.240234" width="32" height="32" rx="16" fill="white"/>
</clipPath>
</defs>
</svg>
