<svg width="21" height="20" viewBox="0 0 21 20" fill="none" xmlns="http://www.w3.org/2000/svg">
<path d="M12.9502 8.75C12.9502 9.41304 12.6868 10.0489 12.218 10.5178C11.7491 10.9866 11.1132 11.25 10.4502 11.25C9.78715 11.25 9.15127 10.9866 8.68243 10.5178C8.21359 10.0489 7.9502 9.41304 7.9502 8.75C7.9502 8.08696 8.21359 7.45107 8.68243 6.98223C9.15127 6.51339 9.78715 6.25 10.4502 6.25C11.1132 6.25 11.7491 6.51339 12.218 6.98223C12.6868 7.45107 12.9502 8.08696 12.9502 8.75Z" stroke="#BB2030" stroke-width="1.25" stroke-linecap="round" stroke-linejoin="round"/>
<path d="M16.7002 8.75C16.7002 14.7017 10.4502 18.125 10.4502 18.125C10.4502 18.125 4.2002 14.7017 4.2002 8.75C4.2002 7.0924 4.85868 5.50268 6.03078 4.33058C7.20288 3.15848 8.79259 2.5 10.4502 2.5C12.1078 2.5 13.6975 3.15848 14.8696 4.33058C16.0417 5.50268 16.7002 7.0924 16.7002 8.75Z" stroke="#BB2030" stroke-width="1.25" stroke-linecap="round" stroke-linejoin="round"/>
</svg>
